<svg width="23" height="16" viewBox="0 0 23 16" fill="none" xmlns="http://www.w3.org/2000/svg">
<path fill-rule="evenodd" clip-rule="evenodd" d="M20.3063 0.555908H2.46128C1.23443 0.555908 0.230652 1.32269 0.230652 2.25987V14.1876C0.230652 15.1248 1.23443 15.8915 2.46128 15.8915H20.3063C21.5331 15.8915 22.5369 15.1248 22.5369 14.1876V2.25987C22.5369 1.32269 21.5331 0.555908 20.3063 0.555908ZM8.03784 12.4836H4.6919C4.07848 12.4836 3.57659 12.1002 3.57659 11.6316C3.57659 11.1631 4.07848 10.7797 4.6919 10.7797H8.03784C8.65126 10.7797 9.15315 11.1631 9.15315 11.6316C9.15315 12.1002 8.65126 12.4836 8.03784 12.4836ZM8.03784 9.0757H4.6919C4.07848 9.0757 3.57659 8.69231 3.57659 8.22372C3.57659 7.75514 4.07848 7.37174 4.6919 7.37174H8.03784C8.65126 7.37174 9.15315 7.75514 9.15315 8.22372C9.15315 8.69231 8.65126 9.0757 8.03784 9.0757ZM8.03784 5.66779H4.6919C4.07848 5.66779 3.57659 5.28439 3.57659 4.81581C3.57659 4.34722 4.07848 3.96383 4.6919 3.96383H8.03784C8.65126 3.96383 9.15315 4.34722 9.15315 4.81581C9.15315 5.28439 8.65126 5.66779 8.03784 5.66779ZM18.8564 7.47398L15.3208 10.1748C14.8859 10.507 14.1721 10.507 13.7371 10.1748L12.1645 8.96495C11.7295 8.63267 11.7295 8.09593 12.1645 7.76366C12.5995 7.43138 13.3021 7.43138 13.7371 7.76366L14.529 8.36856L17.2838 6.26417C17.7187 5.9319 18.4214 5.9319 18.8564 6.26417L18.8675 6.27269C19.2913 6.60496 19.2913 7.15023 18.8564 7.47398Z" fill="black"/>
</svg>
