<svg width="18" height="13" viewBox="0 0 18 13" fill="none" xmlns="http://www.w3.org/2000/svg">
<path d="M1.12179 6.06024H4.20005C4.7644 6.06024 5.22614 5.67685 5.22614 5.20826V1.80034C5.22614 1.33176 4.7644 0.948364 4.20005 0.948364H1.12179C0.557442 0.948364 0.0957031 1.33176 0.0957031 1.80034V5.20826C0.0957031 5.67685 0.557442 6.06024 1.12179 6.06024ZM1.12179 12.0241H4.20005C4.7644 12.0241 5.22614 11.6407 5.22614 11.1721V7.7642C5.22614 7.29561 4.7644 6.91222 4.20005 6.91222H1.12179C0.557442 6.91222 0.0957031 7.29561 0.0957031 7.7642V11.1721C0.0957031 11.6407 0.557442 12.0241 1.12179 12.0241ZM7.27831 12.0241H10.3566C10.9209 12.0241 11.3827 11.6407 11.3827 11.1721V7.7642C11.3827 7.29561 10.9209 6.91222 10.3566 6.91222H7.27831C6.71396 6.91222 6.25223 7.29561 6.25223 7.7642V11.1721C6.25223 11.6407 6.71396 12.0241 7.27831 12.0241ZM13.4348 12.0241H16.5131C17.0774 12.0241 17.5392 11.6407 17.5392 11.1721V7.7642C17.5392 7.29561 17.0774 6.91222 16.5131 6.91222H13.4348C12.8705 6.91222 12.4087 7.29561 12.4087 7.7642V11.1721C12.4087 11.6407 12.8705 12.0241 13.4348 12.0241ZM7.27831 6.06024H10.3566C10.9209 6.06024 11.3827 5.67685 11.3827 5.20826V1.80034C11.3827 1.33176 10.9209 0.948364 10.3566 0.948364H7.27831C6.71396 0.948364 6.25223 1.33176 6.25223 1.80034V5.20826C6.25223 5.67685 6.71396 6.06024 7.27831 6.06024ZM12.4087 1.80034V5.20826C12.4087 5.67685 12.8705 6.06024 13.4348 6.06024H16.5131C17.0774 6.06024 17.5392 5.67685 17.5392 5.20826V1.80034C17.5392 1.33176 17.0774 0.948364 16.5131 0.948364H13.4348C12.8705 0.948364 12.4087 1.33176 12.4087 1.80034Z" fill="black"/>
</svg>
