<svg width="15" height="18" viewBox="0 0 15 18" fill="none" xmlns="http://www.w3.org/2000/svg">
<path d="M7.30435 0.831299C6.83235 0.831299 6.35009 0.865378 5.86783 0.950576C3.03583 1.40213 0.778434 3.30204 0.244869 5.6535C-0.247653 7.87717 0.737391 9.92192 2.52278 11.2425C2.964 11.5662 3.2 12.0178 3.2 12.4949V14.463C3.2 15.4002 4.12348 16.1669 5.25217 16.1669H5.53948C5.89861 16.6781 6.54504 17.0189 7.30435 17.0189C8.06365 17.0189 8.72035 16.6781 9.06922 16.1669H9.35652C10.4852 16.1669 11.4087 15.4002 11.4087 14.463V12.4949C11.4087 12.0263 11.6344 11.5662 12.0654 11.251C13.5532 10.1605 14.487 8.56727 14.487 6.79516C14.487 3.498 11.2753 0.831299 7.30435 0.831299ZM7.81739 10.2031H6.7913V7.99645L4.91356 6.44584L5.64209 5.84094L7.30435 7.22115L8.96661 5.84094L9.69513 6.44584L7.81739 8.00497V10.2031V10.2031ZM8.84348 14.463C8.83322 14.463 8.82296 14.4545 8.8127 14.4545V14.463H5.796V14.4545C5.78574 14.4545 5.77548 14.463 5.76522 14.463C5.47791 14.463 5.25217 14.2755 5.25217 14.037C5.25217 13.7984 5.47791 13.611 5.76522 13.611C5.77548 13.611 5.78574 13.6195 5.796 13.6195V13.611H8.8127V13.6195C8.82296 13.6195 8.83322 13.611 8.84348 13.611C9.13078 13.611 9.35652 13.7984 9.35652 14.037C9.35652 14.2755 9.13078 14.463 8.84348 14.463ZM8.84348 12.759H5.76522C5.47791 12.759 5.25217 12.5716 5.25217 12.333C5.25217 12.0945 5.47791 11.907 5.76522 11.907H8.84348C9.13078 11.907 9.35652 12.0945 9.35652 12.333C9.35652 12.5716 9.13078 12.759 8.84348 12.759Z" fill="black"/>
</svg>
