<svg width="21" height="18" viewBox="0 0 21 18" fill="none" xmlns="http://www.w3.org/2000/svg">
<path d="M17.9282 9.89685C17.9692 9.62422 18 9.35158 18 9.06191C18 8.77224 17.9692 8.4996 17.9282 8.22697L20.0932 6.8212C20.2882 6.69341 20.3395 6.46337 20.2164 6.27594L18.1642 3.32809C18.0411 3.14065 17.764 3.07249 17.5383 3.14065L14.9833 3.99263C14.4498 3.65184 13.8752 3.37069 13.2492 3.15769L12.8593 0.899946C12.8285 0.695471 12.6131 0.542114 12.3565 0.542114H8.25219C7.99567 0.542114 7.7802 0.695471 7.74941 0.899946L7.3595 3.15769C6.73359 3.37069 6.15898 3.66036 5.62541 3.99263L3.07046 3.14065C2.83446 3.06397 2.56767 3.14065 2.44454 3.32809L0.392368 6.27594C0.258977 6.46337 0.320542 6.69341 0.515499 6.8212L2.68054 8.22697C2.6395 8.4996 2.60872 8.78076 2.60872 9.06191C2.60872 9.34306 2.6395 9.62422 2.68054 9.89685L0.515499 11.3026C0.320542 11.4304 0.269238 11.6604 0.392368 11.8479L2.44454 14.7957C2.56767 14.9832 2.84472 15.0513 3.07046 14.9832L5.62541 14.1312C6.15898 14.472 6.73359 14.7531 7.3595 14.9661L7.74941 17.2239C7.7802 17.4284 7.99567 17.5817 8.25219 17.5817H12.3565C12.6131 17.5817 12.8285 17.4284 12.8593 17.2239L13.2492 14.9661C13.8752 14.7531 14.4498 14.4635 14.9833 14.1312L17.5383 14.9832C17.7743 15.0598 18.0411 14.9832 18.1642 14.7957L20.2164 11.8479C20.3395 11.6604 20.2882 11.4304 20.0932 11.3026L17.9282 9.89685V9.89685ZM10.3044 12.0438C8.32402 12.0438 6.71306 10.7062 6.71306 9.06191C6.71306 7.41759 8.32402 6.07998 10.3044 6.07998C12.2847 6.07998 13.8957 7.41759 13.8957 9.06191C13.8957 10.7062 12.2847 12.0438 10.3044 12.0438Z" fill="black"/>
</svg>
