<svg width="22" height="11" viewBox="0 0 22 11" fill="none" xmlns="http://www.w3.org/2000/svg">
<path d="M16.1961 0.961731L17.7764 2.18858L12.4208 6.34624L8.81011 3.54323C8.3821 3.21096 7.69069 3.21096 7.26268 3.54323L0.677882 8.66363C0.24987 8.9959 0.24987 9.53265 0.677882 9.86492C1.10589 10.1972 1.7973 10.1972 2.22531 9.86492L8.03091 5.34943L11.6416 8.15244C12.0696 8.48471 12.761 8.48471 13.189 8.15244L19.3238 3.39839L20.9042 4.62524C21.2444 4.88936 21.837 4.70192 21.837 4.32705V0.663539C21.848 0.424984 21.6066 0.237549 21.2993 0.237549H16.5911C16.0973 0.237549 15.8558 0.697618 16.1961 0.961731Z" fill="black"/>
</svg>
